<svg xmlns="http://www.w3.org/2000/svg" viewBox="0 0 24 24"><path d="M22.8 1.6H20V.4c0-.2-.2-.4-.4-.4h-2.8c-.2 0-.4.2-.4.4v1.2H7.6V.4c0-.2-.2-.4-.4-.4H4.4c-.2 0-.4.2-.4.4v1.2H1.2c-.2 0-.4.2-.4.4v21.6c0 .2.2.4.4.4h21.6c.2 0 .4-.2.4-.4V2c0-.2-.2-.4-.4-.4zM17.2.8h2v2.4h-2V.8zM4.8.8h2v2.4h-2V.8zM1.6 2.4H4v1.2c0 .2.2.4.4.4h2.8c.2 0 .4-.2.4-.4V2.4h8.8v1.2c0 .2.2.4.4.4h2.8c.2 0 .4-.2.4-.4V2.4h2.4V6H1.6V2.4zm0 20.8V6.8h20.8v16.4H1.6z"/><path d="M15.2 9.2H4.4v11.6H19.6V9.2h-4.4zm-2.8.8h2.8v2.8h-2.8V10zm2.8 6.4h-2.8v-2.8h2.8v2.8zm-6.4-2.8h2.8v2.8H8.8v-2.8zm0-3.6h2.8v2.8H8.8V10zm-3.6 0H8v2.8H5.2V10zm0 3.6H8v2.8H5.2v-2.8zM8 20H5.2v-2.8H8V20zm3.6 0H8.8v-2.8h2.8V20zm3.6 0h-2.8v-2.8h2.8V20zm3.6 0H16v-2.8h2.8V20zm0-3.6H16v-2.8h2.8v2.8zm0-6.4v2.8H16V10h2.8z"/></svg>