<svg xmlns="http://www.w3.org/2000/svg" viewBox="0 0 24 24"><path d="M13.9 7.1c-.3 0-.5.2-.5.5s.2.5.5.5.5-.2.5-.5c-.1-.3-.3-.5-.5-.5zM11 16.3c.2-.2.2-.5 0-.7-.2-.2-.5-.2-.7 0-.2.2-.2.5 0 .7.3.2.5.2.7 0z"/><path d="M5.4 23.9c.2.2.5.2.7 0l2.3-2.2c.4-.4.5-1 .3-1.5l.5-.5c.3-.3.6-.4 1-.4h6.2c1.1 0 2.2-.4 2.9-1.2 0 0-.2.3 4.3-5.1.7-.8.6-2-.2-2.6-.8-.7-2-.6-2.6.2L18 13.4c-.3-.4-.9-.7-1.5-.7h-5.2c-.7-.3-1.5-.5-2.3-.5-2.3 0-4.2 1-5.3 3-.4-.1-.9.1-1.3.4L.2 17.8c-.2.2-.2.5 0 .7l5.2 5.4zm3.5-10.7c.7 0 1.4.1 2.1.4h5.5c.5 0 .9.4.9.9s-.4.9-.9.9h-3.8c-.3 0-.5.2-.5.5s.2.5.5.5h3.8c1 0 1.9-.8 1.9-1.9v-.2c2.7-2.8 3.1-3.1 3.1-3.2.3-.4.9-.4 1.3-.1.4.3.4.9.1 1.3l-4.2 5c-.6.6-1.4.9-2.3.9h-6.2c-.6 0-1.2.2-1.6.7l-.4.4-3.7-3.7c.8-1.5 2.4-2.4 4.4-2.4zM3 16.3c.2-.2.4-.2.6-.1.1 0 4.1 4.1 4.1 4.1.1.2.1.4 0 .6l-1.9 1.9-4.6-4.6L3 16.3zM7.3 9.9h11.3c.8 0 1.4-.6 1.4-1.4V1.4c0-.8-.7-1.4-1.4-1.4H7.3c-.8 0-1.4.6-1.4 1.4v7.1c0 .8.6 1.4 1.4 1.4zM19 3.7H6.8v-.9H19v.9zM18.6 9H7.3c-.2 0-.5-.2-.5-.5V4.7H19v3.8c0 .3-.2.5-.4.5zM7.3.9h11.3c.3 0 .5.2.5.5v.5H6.8v-.5c0-.3.3-.5.5-.5z"/><path d="M17.6 7.1h-1.9c-.3 0-.5.2-.5.5s.2.5.5.5h1.9c.3 0 .5-.2.5-.5s-.2-.5-.5-.5z"/></svg>