<svg xmlns="http://www.w3.org/2000/svg" viewBox="0 0 24 24"><circle cx="12" cy="10.1" r=".5"/><path d="M20.2 20h-.5l-3.1-2.5c1.6-.5 2.7-1.4 2.7-2.5 0-1-1-1.8-2.3-2.4.1-.2.2-.5.2-.8V7.9c0-1.7-1.2-2.9-3-3.1.3-.4.4-.9.4-1.5v-.8c0-1.4-1-2.5-2.3-2.5H12c-1.3 0-2.3 1-2.3 2.5v.9c0 .6.1 1.1.4 1.5C8.2 5 7 6.2 7 7.9v3.9c0 .3.1.6.2.8-1.4.5-2.4 1.4-2.4 2.4 0 1.1 1.1 2 2.7 2.5L4.4 20h-.5C2 20 .6 20.9.6 22s1.4 2 3.3 2 3.3-.9 3.3-2c0-.7-.6-1.3-1.5-1.7l3.1-2.5c.9.2 1.8.3 2.8.3V20c-1.6.1-2.8.9-2.8 2s1.4 2 3.3 2 3.3-.9 3.3-2c0-1-1.2-1.8-2.8-2v-1.9c.9 0 1.9-.1 2.8-.3l3.1 2.5c-.9.3-1.5 1-1.5 1.7 0 1.1 1.4 2 3.3 2s3.3-.9 3.3-2c-.1-1.1-1.6-2-3.4-2zM6.1 22c0 .4-.9.9-2.3.9s-2.3-.6-2.3-.9c0-.4.9-.9 2.3-.9s2.3.5 2.3.9zm4.5-19.5c0-.7.4-1.5 1.2-1.5h.3c.8 0 1.2.7 1.2 1.4v.9c0 .7-.4 1.4-1.2 1.4h-.3c-.8 0-1.2-.7-1.2-1.4v-.8zm2.2 3.4L12 7.4l-.8-1.5h1.6zM8 7.9c0-1.2 1-1.9 2-2l1.5 2.8c.1.2.3.3.5.3s.4-.1.5-.3L14 5.9c1.1.1 2 .8 2 2v3.9c0 .5-.4.9-.9.9V9.2c0-.3-.2-.5-.5-.5s-.5.2-.5.5v2.1l-2 1.2-2-1.2V9.2c0-.3-.2-.5-.5-.5s-.7.2-.7.5v3.4c-.5 0-.9-.4-.9-.9V7.9zm6 4.7v1.9h-4v-1.9l1.7 1.1c.2.1.4.1.5 0l1.8-1.1zm.3 9.4c0 .4-.9.9-2.3.9s-2.3-.5-2.3-.9.9-.9 2.3-.9 2.3.5 2.3.9zM12 17.1c-3.8 0-6.1-1.2-6.1-2.1 0-.5.7-1.1 2.1-1.6.3.2.6.3 1 .3V15c0 .3.2.5.5.5h5.1c.3 0 .5-.2.5-.5v-1.3c.4 0 .7-.1 1-.3 1.3.4 2.1 1.1 2.1 1.6-.1.9-2.4 2.1-6.2 2.1zm8.2 5.9c-1.4 0-2.3-.6-2.3-.9 0-.4.9-.9 2.3-.9s2.3.6 2.3.9c-.1.3-1 .9-2.3.9z"/></svg>