<svg xmlns="http://www.w3.org/2000/svg" viewBox="0 0 24 24"><path d="M9.4 20.7c4 0 7.3-3.3 7.3-7.3s-3.3-7.3-7.3-7.3-7.3 3.3-7.3 7.3 3.3 7.3 7.3 7.3zm0-13.6c3.5 0 6.3 2.8 6.3 6.3s-2.8 6.3-6.3 6.3S3 16.9 3 13.4s2.9-6.3 6.4-6.3zM22.3 5.6c-.2-.2-.5-.2-.7 0-.2.2-.2.5 0 .7l.7.7c.1.1.2.1.3.1.1 0 .2 0 .3-.1.2-.2.2-.5 0-.7l-.6-.7zM23.5 4.1h-1c-.3 0-.5.2-.5.5s.3.4.5.4h1c.3 0 .5-.2.5-.4s-.2-.5-.5-.5zM22 3.7c.1 0 .2 0 .3-.1l.7-.7c.2-.2.2-.5 0-.7-.2-.2-.5-.2-.7 0l-.7.7c-.2.2-.2.5 0 .7.1.1.3.1.4.1zM20.7 1.2c-.3 0-.5.2-.5.5v1c0 .3.2.5.5.5s.5-.2.5-.5v-1c-.1-.3-.3-.5-.5-.5zM19 3.6c.1.1.2.1.3.1.1 0 .2 0 .3-.1.2-.2.2-.5 0-.7l-.6-.7c-.2-.2-.5-.2-.7 0-.2.2-.2.5 0 .7l.7.7z"/><path d="M20.7 4.1c-1.6 0-2.8 1.3-2.8 2.8v2.4C16.3 6.2 13.1 4 9.4 4 7.7 4 6 4.5 4.5 5.4c-.2.1-.3.4-.2.6.2.3.5.3.7.2C6.3 5.4 7.8 5 9.4 5c4.7 0 8.4 3.8 8.4 8.4s-3.8 8.4-8.4 8.4S1 18 1 13.4c0-1.6.4-3.1 1.2-4.4.1-.2 0-.5-.2-.6-.2-.2-.5-.1-.6.1C.5 10 0 11.7 0 13.4c0 5.2 4.2 9.4 9.4 9.4s9.4-4.2 9.4-9.4V6.9c0-1.1.9-1.9 1.9-1.9.3 0 .5-.2.5-.5-.1-.2-.3-.4-.5-.4z"/><path d="M7.1 14.4L7 15.5c0 .3.1.7.4.9.2.1.4.2.6.2.1 0 .3 0 .4-.1l1.1-.5 1 .5c.3.2.7.1 1-.1.3-.2.4-.5.4-.9l-.1-1.2.7-.8c.3-.3.4-.6.3-1-.1-.3-.4-.6-.7-.7l-1.2-.3-.6-1c-.2-.3-.5-.5-.8-.5-.4 0-.7.2-.9.5l-.6 1-1.1.2c-.3.1-.6.3-.7.6-.1.3 0 .7.2.9l.7 1.2zM7 12.9s0-.1 0 0l1.3-.3c.1 0 .2-.1.3-.2l.7-1.2.7 1.2c.1.1.2.2.3.2l1.4.3-.9 1c-.1.1-.1.2-.1.4l.1 1.4-1.2-.6c-.1-.1-.3-.1-.4 0l-1.3.6.1-1.4c0-.1 0-.3-.1-.4l-.9-1zM3.1 7.6c.1 0 .3-.1.3-.2.2-.2.2-.5 0-.7-.2-.2-.5-.2-.7 0-.1.3-.1.6.1.8.1 0 .2.1.3.1z"/></svg>