<svg xmlns="http://www.w3.org/2000/svg" viewBox="0 0 24 24"><path d="M24 11.8c0-.5-.5-1-1-1-.6 0-1 .5-1 1 .1 4.4-2.9 8.4-7.1 9.7-4 1.2-8.3-.2-10.8-3.4l3.4.5c.5.1 1.1-.3 1.1-.9.1-.5-.3-1.1-.9-1.1L2 15.8c-.5 0-1 .2-1.1.9l-.8 5.7c-.1.5.3 1.1.9 1.1h.1c.5 0 .9-.4 1-.9l.4-3.2c2.4 3 5.9 4.6 9.5 4.6 1.2 0 2.3-.2 3.4-.5 5.2-1.6 8.7-6.3 8.6-11.7zM1 13.1c.6 0 1-.5 1-1 0-4.4 2.9-8.4 7.1-9.7 3.9-1.2 8.2.2 10.7 3.3l-3.4-.5c-.5-.1-1.1.3-1.1.9s.3 1.1.9 1.1l5.7.8c.8.1 1.1-.5 1.1-.8l.8-5.7c.1-.5-.3-1.1-.9-1.1-.5-.1-1.1.3-1.1.9l-.4 3.3C18.4.8 13.3-.8 8.6.6 3.4 2.1-.1 6.8 0 12.1c0 .6.5 1 1 1z"/></svg>