<svg xmlns="http://www.w3.org/2000/svg" viewBox="0 0 24 24"><path d="M22.8 9.5l-1.7-.3c-.2-.6-.4-1.1-.7-1.6l1-1.4c.4-.6.4-1.4-.2-1.9l-1.5-1.5c-.3-.3-.7-.4-1-.4-.3 0-.6.1-.9.3l-1.4 1c-.5-.3-1.1-.5-1.7-.7l-.3-1.7C14.4.5 13.7 0 13 0h-2.1c-.7 0-1.3.5-1.5 1.2l-.3 1.7c-.5.2-1.1.4-1.6.7l-1.4-1c-.2-.1-.5-.2-.8-.2-.4 0-.8.2-1 .4L2.7 4.3c-.5.5-.6 1.3-.1 1.9l1 1.4c-.3.5-.5 1.1-.7 1.7l-1.7.2C.5 9.7 0 10.3 0 11v2.1c0 .7.5 1.3 1.2 1.5l1.7.3c.2.6.4 1.1.7 1.6l-1 1.4c-.4.6-.4 1.4.2 1.9l1.5 1.5c.3.3.7.4 1 .4.3 0 .6-.1.9-.3l1.4-1c.5.3 1 .5 1.6.7l.3 1.7c.1.7.7 1.2 1.5 1.2h2.1c.7 0 1.3-.5 1.5-1.2l.3-1.7c.6-.2 1.1-.4 1.6-.7l1.4 1c.3.2.6.3.9.3.4 0 .8-.2 1-.4l1.5-1.5c.5-.5.6-1.3.2-1.9l-1-1.4c.3-.5.5-1.1.7-1.6l1.7-.3c.7-.1 1.2-.7 1.2-1.5V11c-.1-.8-.6-1.4-1.3-1.5zm-.1 3.6c0 .1 0 .1-.1.1l-2.1.4c-.3 0-.5.2-.5.5-.2.7-.5 1.4-.9 2.1-.1.2-.1.5 0 .7l1.2 1.7v.2l-1.5 1.5h-.1-.1l-1.7-1.2c-.2-.2-.5-.2-.7 0-.7.4-1.4.7-2.1.9-.3.1-.5.3-.5.5l-.4 2.1c0 .1-.1.1-.1.1H11c-.1 0-.1 0-.1-.1l-.4-2.1c0-.3-.2-.5-.5-.5-.7-.2-1.4-.5-2.1-.8-.1-.2-.2-.2-.3-.2-.1 0-.3 0-.4.1l-1.8 1.2h-.1-.1l-1.5-1.5s-.1-.1 0-.2L5 16.9c.2-.2.2-.5 0-.7-.4-.7-.7-1.4-.9-2.1-.1-.3-.3-.5-.5-.5l-2.1-.4c-.1 0-.1-.1-.1-.1V11c0-.1 0-.1.1-.1l2.1-.4c.3 0 .5-.2.5-.5.2-.7.5-1.4.9-2.1.1-.2.1-.5 0-.7L3.7 5.4v-.2l1.5-1.5h.2L7.1 5c.2.2.5.2.7 0 .7-.4 1.4-.7 2.1-.9.3-.1.5-.3.5-.5l.4-2.1c0-.1.1-.1.1-.1H13c.1 0 .1 0 .1.1l.4 2.1c0 .3.2.5.5.5.8.2 1.5.5 2.2.9.2.1.5.1.7 0l1.7-1.2h.2l1.5 1.5s.1.1 0 .2l-1.2 1.7c-.2.2-.2.5 0 .7.4.7.7 1.4.9 2.1.1.3.3.5.5.5l2.1.4c.1 0 .1.1.1.1v2.1z"/><path d="M12 6.8c-2.9 0-5.2 2.3-5.2 5.2s2.3 5.2 5.2 5.2 5.2-2.3 5.2-5.2-2.3-5.2-5.2-5.2zm0 9c-2.1 0-3.8-1.7-3.8-3.8S9.9 8.2 12 8.2s3.8 1.7 3.8 3.8-1.7 3.8-3.8 3.8z"/></svg>